<?xml version="1.0" standalone="no"?>
<!DOCTYPE svg PUBLIC "-//W3C//DTD SVG 20010904//EN"
 "http://www.w3.org/TR/2001/REC-SVG-20010904/DTD/svg10.dtd">
<svg version="1.0" xmlns="http://www.w3.org/2000/svg"
 width="180.000000pt" height="180.000000pt" viewBox="0 0 180.000000 180.000000"
 preserveAspectRatio="xMidYMid meet">
<metadata>
Created by potrace 1.11, written by Peter Selinger 2001-2013
</metadata>
<g transform="translate(0.000000,180.000000) scale(0.100000,-0.100000)"
fill="#000000" stroke="none">
<path d="M0 1269 c0 -421 3 -529 13 -523 20 13 1267 1045 1267 1050 0 2 -288
4 -640 4 l-640 0 0 -531z"/>
<path d="M717 1065 l-717 -736 0 -165 0 -165 92 3 93 3 693 880 c381 484 697
888 703 898 9 16 3 17 -69 17 l-78 0 -717 -735z"/>
<path d="M1696 1748 c-180 -284 -1096 -1740 -1096 -1744 0 -2 270 -4 600 -4
l600 0 0 900 0 900 -35 0 c-32 0 -39 -5 -69 -52z"/>
</g>
</svg>
